<svg width="512" height="512" viewBox="0 0 512 512" fill="none" xmlns="http://www.w3.org/2000/svg">
  <!-- Circular Background -->
  <circle cx="256" cy="256" r="240" fill="#2C3E2F" />
  
  <!-- Outer Gold Ring -->
  <circle cx="256" cy="256" r="248" stroke="#C6A75E" stroke-width="8" />
  <circle cx="256" cy="256" r="232" stroke="#C6A75E" stroke-width="2" opacity="0.3" />
  
  <!-- Horse Head Silhouette (Minimalist & Luxury) -->
  <path d="M360 160C360 160 330 140 280 140C230 140 190 180 180 230C170 280 185 320 200 350L210 420H320L310 380C310 380 340 350 350 300C360 250 360 160 360 160Z" fill="#C6A75E" />
  <path d="M220 200C215 205 210 215 210 225C210 235 215 245 220 250" stroke="#2C3E2F" stroke-width="6" stroke-linecap="round" />
  
  <!-- Subtle Details -->
  <circle cx="290" cy="210" r="8" fill="#2C3E2F" />
</svg>
